<?xml version="1.0" standalone="no"?><!-- Generator: Gravit.io --><svg xmlns="http://www.w3.org/2000/svg" xmlns:xlink="http://www.w3.org/1999/xlink" style="isolation:isolate" viewBox="0 0 300 300" width="300" height="300"><defs><clipPath id="_clipPath_d3YLwRG9v6WcVCYl5vKmBcjD0pCbeBku"><rect width="300" height="300"/></clipPath></defs><g clip-path="url(#_clipPath_d3YLwRG9v6WcVCYl5vKmBcjD0pCbeBku)"><path d=" M 128.117 24.254 C 127.719 21.44 129.678 18.835 132.492 18.438 C 135.311 18.037 137.911 19.998 138.309 22.813 L 146.459 80.434 C 146.857 83.248 144.899 85.853 142.085 86.25 C 141.84 86.285 141.597 86.302 141.357 86.302 C 138.834 86.302 136.631 84.446 136.268 81.875 L 128.117 24.254 Z  M 263.792 43.96 L 259.762 47.989 C 257.752 49.999 257.752 53.258 259.762 55.268 C 261.772 57.278 265.03 57.278 267.041 55.268 L 271.07 51.239 L 275.099 55.268 C 276.104 56.273 277.422 56.775 278.739 56.775 C 280.056 56.775 281.373 56.273 282.378 55.268 C 284.388 53.258 284.388 49.999 282.378 47.989 L 278.348 43.96 L 282.38 39.929 C 284.39 37.919 284.39 34.66 282.38 32.65 C 280.369 30.64 277.111 30.64 275.1 32.65 L 271.07 36.681 L 267.039 32.65 C 265.029 30.64 261.771 30.64 259.76 32.65 C 257.75 34.66 257.75 37.919 259.76 39.929 L 263.792 43.96 Z  M 114.448 110.816 C 115.461 112.139 116.991 112.833 118.537 112.833 C 119.629 112.833 120.73 112.487 121.664 111.772 C 123.92 110.043 124.348 106.812 122.619 104.556 L 77.184 45.252 C 75.455 42.996 72.225 42.568 69.968 44.296 C 67.712 46.025 67.285 49.255 69.013 51.512 L 114.448 110.816 Z  M 29.972 62.745 L 31.675 64.055 C 32.61 64.773 33.713 65.121 34.807 65.121 C 36.351 65.121 37.879 64.429 38.893 63.109 C 40.624 60.856 40.201 57.624 37.947 55.892 L 36.244 54.583 C 33.989 52.85 30.758 53.274 29.027 55.528 C 27.294 57.782 27.718 61.014 29.972 62.745 Z  M 25.624 126.535 C 22.806 126.16 20.218 128.144 19.846 130.961 C 19.473 133.779 21.454 136.366 24.272 136.739 L 76.908 143.709 C 77.137 143.739 77.365 143.754 77.59 143.754 C 80.132 143.754 82.343 141.871 82.686 139.282 C 83.058 136.464 81.077 133.878 78.259 133.504 L 25.624 126.535 Z  M 46.749 75.641 L 96.779 114.089 C 97.714 114.808 98.816 115.155 99.911 115.155 C 101.455 115.155 102.982 114.463 103.996 113.145 C 105.728 110.891 105.306 107.659 103.052 105.927 L 53.022 67.479 C 50.769 65.747 47.537 66.17 45.805 68.424 C 44.072 70.677 44.495 73.909 46.749 75.641 Z  M 157.441 86.786 C 157.676 86.818 157.909 86.833 158.14 86.833 C 160.675 86.833 162.883 84.96 163.233 82.377 L 171.116 24.257 C 171.499 21.44 169.525 18.847 166.708 18.465 C 163.886 18.083 161.299 20.057 160.917 22.874 L 153.033 80.994 C 152.651 83.811 154.626 86.404 157.441 86.786 Z  M 274.771 159.525 L 204.181 150.178 C 201.365 149.808 198.776 151.786 198.403 154.604 C 198.03 157.422 200.012 160.009 202.829 160.382 L 273.42 169.729 C 273.649 169.759 273.877 169.774 274.102 169.774 C 276.643 169.774 278.855 167.891 279.197 165.303 C 279.571 162.485 277.59 159.898 274.771 159.525 Z  M 279.223 131.155 C 278.854 128.336 276.269 126.353 273.452 126.72 L 220.49 133.652 C 217.671 134.021 215.685 136.605 216.054 139.424 C 216.393 142.016 218.605 143.903 221.151 143.903 C 221.374 143.903 221.598 143.889 221.825 143.859 L 274.787 136.926 C 277.606 136.557 279.592 133.974 279.223 131.155 Z  M 246.142 67.623 L 196.313 105.799 C 194.057 107.528 193.63 110.758 195.358 113.015 C 196.371 114.338 197.9 115.032 199.447 115.032 C 200.539 115.032 201.64 114.686 202.574 113.97 L 252.402 75.795 C 254.658 74.066 255.086 70.835 253.357 68.579 C 251.629 66.322 248.398 65.894 246.142 67.623 Z  M 232.376 40.255 C 233.311 40.974 234.414 41.323 235.51 41.323 C 237.053 41.323 238.579 40.631 239.593 39.314 L 240.047 38.723 C 241.78 36.47 241.359 33.239 239.106 31.506 C 236.852 29.773 233.621 30.195 231.888 32.447 L 231.434 33.037 C 229.701 35.291 230.123 38.522 232.376 40.255 Z  M 241.537 28.327 C 242.473 29.047 243.576 29.396 244.672 29.396 C 246.215 29.396 247.741 28.705 248.754 27.388 L 249.234 26.765 C 250.968 24.512 250.548 21.28 248.295 19.546 C 246.042 17.813 242.811 18.233 241.077 20.485 L 240.597 21.109 C 238.864 23.362 239.284 26.594 241.537 28.327 Z  M 177.697 111.47 C 178.632 112.188 179.734 112.536 180.83 112.536 C 182.374 112.536 183.901 111.844 184.914 110.525 L 230.175 51.632 C 231.907 49.378 231.484 46.146 229.23 44.414 C 226.977 42.682 223.745 43.105 222.014 45.359 L 176.753 104.252 C 175.021 106.507 175.443 109.738 177.697 111.47 Z  M 22.123 50.217 C 23.854 47.962 23.43 44.731 21.176 43 L 20.282 42.312 C 18.027 40.581 14.797 41.005 13.065 43.259 C 11.334 45.513 11.758 48.744 14.011 50.476 L 14.906 51.163 C 15.841 51.881 16.943 52.229 18.037 52.229 C 19.582 52.229 21.109 51.536 22.123 50.217 Z  M 182.354 188.192 C 182.863 190.254 182.054 192.418 180.316 193.638 C 178.578 194.86 176.27 194.888 174.502 193.709 L 150.393 177.632 L 124.405 193.797 C 123.57 194.316 122.627 194.574 121.687 194.574 C 120.596 194.574 119.508 194.228 118.596 193.542 C 116.898 192.267 116.157 190.079 116.732 188.034 L 124.572 160.137 L 101.168 140.418 C 99.544 139.049 98.927 136.823 99.615 134.814 C 100.304 132.805 102.155 131.425 104.277 131.339 L 133.232 130.174 L 144.755 101.822 C 145.555 99.855 147.473 98.59 149.604 98.614 C 151.728 98.647 153.613 99.982 154.349 101.974 L 164.404 129.151 L 194.93 131.348 C 197.048 131.501 198.855 132.939 199.48 134.969 C 200.104 136.999 199.417 139.205 197.75 140.521 L 175.01 158.482 L 182.354 188.192 Z  M 166.028 152.459 L 180.962 140.663 L 160.358 139.18 C 158.344 139.035 156.601 137.726 155.901 135.832 L 149.297 117.984 L 141.519 137.122 C 140.759 138.992 138.975 140.245 136.957 140.327 L 117.942 141.092 L 133.739 154.402 C 135.283 155.703 135.923 157.787 135.377 159.731 L 130.228 178.053 L 147.77 167.141 C 149.484 166.075 151.664 166.109 153.344 167.229 L 169.178 177.788 L 164.221 157.733 C 163.737 155.773 164.443 153.71 166.028 152.459 Z  M 251.181 272.366 C 249.452 270.11 246.221 269.683 243.966 271.412 C 241.71 273.142 241.283 276.372 243.012 278.628 L 243.756 279.599 C 244.77 280.921 246.298 281.614 247.845 281.614 C 248.937 281.614 250.038 281.268 250.972 280.552 C 253.228 278.823 253.655 275.592 251.925 273.336 L 251.181 272.366 Z  M 25.703 111.81 L 29.733 107.781 L 33.762 111.81 C 34.767 112.815 36.084 113.317 37.401 113.317 C 38.718 113.317 40.035 112.815 41.041 111.81 C 43.051 109.8 43.051 106.541 41.041 104.531 L 37.011 100.501 L 41.041 96.471 C 43.051 94.461 43.051 91.202 41.041 89.192 C 39.031 87.182 35.773 87.183 33.762 89.192 L 29.732 93.222 L 25.702 89.192 C 23.692 87.182 20.434 87.182 18.423 89.192 C 16.413 91.202 16.413 94.461 18.423 96.471 L 22.453 100.501 L 18.423 104.531 C 16.413 106.541 16.413 109.8 18.423 111.81 C 20.435 113.82 23.693 113.82 25.703 111.81 Z  M 241.281 259.435 L 240.537 258.465 C 238.807 256.209 235.576 255.782 233.321 257.511 C 231.065 259.241 230.638 262.471 232.368 264.727 L 233.112 265.698 C 234.125 267.02 235.654 267.713 237.2 267.713 C 238.292 267.713 239.394 267.367 240.327 266.651 C 242.584 264.922 243.01 261.691 241.281 259.435 Z  M 282.462 199.894 L 286.492 195.863 C 288.503 193.853 288.503 190.595 286.492 188.585 C 284.482 186.574 281.224 186.575 279.213 188.585 L 275.183 192.614 L 271.153 188.584 C 269.142 186.574 265.884 186.574 263.873 188.584 C 261.863 190.594 261.863 193.853 263.873 195.863 L 267.904 199.893 L 263.875 203.923 C 261.864 205.933 261.864 209.191 263.875 211.201 C 265.885 213.212 269.143 213.211 271.154 211.201 L 275.183 207.172 L 279.213 211.201 C 280.218 212.207 281.535 212.709 282.852 212.709 C 284.169 212.709 285.486 212.206 286.491 211.201 C 288.501 209.191 288.501 205.933 286.491 203.923 L 282.462 199.894 Z  M 252.294 220.623 L 204.333 183.763 C 202.08 182.032 198.848 182.454 197.116 184.708 C 195.384 186.962 195.807 190.193 198.06 191.925 L 246.022 228.785 C 246.957 229.504 248.059 229.851 249.154 229.851 C 250.698 229.851 252.225 229.159 253.239 227.841 C 254.971 225.586 254.548 222.355 252.294 220.623 Z  M 204.441 211.352 C 202.711 209.095 199.481 208.667 197.225 210.397 C 194.969 212.125 194.541 215.356 196.269 217.612 L 221.859 251.013 C 222.872 252.335 224.402 253.03 225.949 253.03 C 227.04 253.03 228.141 252.684 229.075 251.968 C 231.331 250.24 231.759 247.009 230.031 244.753 L 204.441 211.352 Z  M 102.116 184.451 C 100.388 182.195 97.157 181.767 94.901 183.496 L 46.641 220.47 C 44.385 222.199 43.957 225.429 45.685 227.686 C 46.699 229.009 48.228 229.703 49.775 229.703 C 50.866 229.703 51.967 229.357 52.901 228.641 L 101.161 191.667 C 103.417 189.938 103.845 186.708 102.116 184.451 Z  M 49.799 252.628 C 47.789 250.618 44.531 250.618 42.521 252.628 L 38.49 256.658 L 34.46 252.628 C 32.449 250.618 29.191 250.618 27.18 252.628 C 25.17 254.638 25.17 257.897 27.18 259.907 L 31.21 263.937 L 27.181 267.966 C 25.17 269.976 25.17 273.235 27.18 275.245 C 29.19 277.255 32.449 277.255 34.459 275.245 L 38.49 271.215 L 42.519 275.244 C 43.524 276.249 44.841 276.752 46.158 276.752 C 47.475 276.752 48.792 276.249 49.798 275.244 C 51.808 273.234 51.808 269.976 49.798 267.966 L 45.768 263.936 L 49.798 259.906 C 51.809 257.897 51.809 254.638 49.799 252.628 Z  M 100.153 154.594 C 99.784 151.775 97.19 149.793 94.381 150.159 L 24.256 159.338 C 21.437 159.707 19.452 162.291 19.82 165.109 C 20.16 167.701 22.372 169.588 24.917 169.588 C 25.14 169.588 25.365 169.574 25.592 169.544 L 95.717 160.365 C 98.536 159.996 100.521 157.412 100.153 154.594 Z  M 163.233 214.95 C 162.851 212.133 160.251 210.16 157.441 210.541 C 154.625 210.923 152.651 213.517 153.033 216.333 L 160.917 274.453 C 161.267 277.036 163.475 278.909 166.01 278.909 C 166.24 278.909 166.474 278.894 166.708 278.862 C 169.525 278.48 171.499 275.887 171.116 273.07 L 163.233 214.95 Z  M 142.085 211.077 C 139.275 210.679 136.666 212.638 136.268 215.452 L 128.117 273.072 C 127.719 275.887 129.678 278.491 132.492 278.889 C 132.737 278.924 132.98 278.941 133.22 278.941 C 135.742 278.941 137.945 277.084 138.309 274.515 L 146.459 216.894 C 146.858 214.079 144.899 211.475 142.085 211.077 Z  M 101.724 210.327 C 99.471 208.595 96.238 209.018 94.507 211.272 L 68.869 244.632 C 67.137 246.886 67.56 250.117 69.813 251.849 C 70.748 252.568 71.851 252.915 72.946 252.915 C 74.49 252.915 76.018 252.223 77.031 250.905 L 102.669 217.544 C 104.4 215.29 103.978 212.059 101.724 210.327 Z " fill="rgb(172,187,22)"/></g></svg>