<svg xmlns="http://www.w3.org/2000/svg" xmlns:xlink="http://www.w3.org/1999/xlink" style="isolation:isolate" viewBox="0 0 20 20" width="20" height="20"><defs><clipPath id="_clipPath_Ja4xKW8346eKtJdxCl7UaI88vrzipVUH"><rect width="20" height="20"/></clipPath></defs><g clip-path="url(#_clipPath_Ja4xKW8346eKtJdxCl7UaI88vrzipVUH)"><path d=" M 18 0 L 2 0 C 0.895 0 0 0.895 0 2 L 0 18 C 0 19.105 0.895 20 2 20 L 18 20 C 19.105 20 20 19.105 20 18 L 20 2 C 20 0.895 19.105 0 18 0 Z  M 16.4 5.4 L 15 5.4 C 14.1 5.4 14 5.7 14 6.4 L 14 7.7 L 16.1 7.7 L 16 10 L 14.1 10 L 14.1 17 L 10.9 17 L 10.9 10 L 9.7 10 L 9.7 7.6 L 10.9 7.6 L 10.9 6.1 C 10.9 4.1 11.7 3 14 3 L 16.4 3 L 16.4 5.4 Z " fill="rgb(172,187,22)"/></g></svg>