<?xml version="1.0" standalone="no"?><!-- Generator: Gravit.io --><svg xmlns="http://www.w3.org/2000/svg" xmlns:xlink="http://www.w3.org/1999/xlink" style="isolation:isolate" viewBox="0 0 300 300" width="300" height="300"><defs><clipPath id="_clipPath_UQ9UiHohXKC021ziR4GbbEdGHExXDOic"><rect width="300" height="300"/></clipPath></defs><g clip-path="url(#_clipPath_UQ9UiHohXKC021ziR4GbbEdGHExXDOic)"><path d=" M 198.926 184.201 C 198.087 181.872 195.518 180.665 193.19 181.504 C 190.861 182.343 189.653 184.912 190.492 187.24 C 190.513 187.297 190.535 187.354 190.558 187.41 C 194.646 198.078 194.942 206.236 191.365 209.822 C 187.026 214.152 176.219 212.798 162.45 206.209 C 144.015 196.637 127.259 184.133 112.836 169.186 C 77.726 134.072 63.239 99.616 72.199 90.656 C 75.058 88.398 78.775 87.531 82.338 88.29 C 84.807 88.471 86.955 86.617 87.137 84.148 C 87.312 81.762 85.583 79.658 83.208 79.37 C 76.976 78.267 70.582 80.084 65.861 84.3 C 49.438 100.719 74.544 143.547 106.498 175.506 C 121.637 191.172 139.229 204.267 158.582 214.273 C 162.086 215.951 165.698 217.396 169.393 218.598 L 137.546 230.673 C 95.021 214.506 64.407 176.805 57.314 131.866 C 56.93 129.421 54.636 127.749 52.19 128.133 C 49.745 128.516 48.073 130.81 48.457 133.256 C 49.16 137.738 50.102 142.22 51.254 146.604 C 61.575 185.711 88.761 218.199 125.435 235.254 L 73.02 255.088 C 72.779 254.687 72.477 254.327 72.123 254.021 C 58.802 243.326 50.444 227.641 48.995 210.62 L 46.915 185.434 C 46.751 182.994 44.64 181.148 42.2 181.312 C 42.153 181.315 42.106 181.319 42.061 181.324 C 39.593 181.52 37.751 183.68 37.948 186.147 C 37.948 186.157 37.949 186.168 37.95 186.178 L 40.066 211.355 C 41.641 229.549 50.129 246.447 63.782 258.575 L 26.391 272.73 L 33.114 245.138 C 33.701 242.731 32.226 240.305 29.819 239.719 C 27.413 239.132 24.987 240.607 24.4 243.013 L 15.656 278.871 C 15.066 281.275 16.537 283.702 18.942 284.291 C 19.824 284.508 20.75 284.45 21.599 284.129 L 187.443 221.377 C 187.707 221.248 187.956 221.092 188.187 220.911 C 191.776 220.36 195.104 218.7 197.703 216.164 C 202.144 211.722 205.968 202.565 198.926 184.201 Z " fill="rgb(41,55,55)"/><path d=" M 241.225 172.641 C 216.994 163.57 190.805 161.027 165.282 165.268 L 149.267 167.957 C 146.836 168.425 145.244 170.774 145.711 173.205 C 146.163 175.554 148.379 177.134 150.746 176.796 L 166.757 174.13 C 190.727 170.144 215.324 172.534 238.078 181.059 C 238.583 181.238 239.116 181.327 239.652 181.324 C 242.127 181.327 244.137 179.324 244.141 176.849 C 244.145 174.974 242.982 173.296 241.225 172.641 Z " fill="rgb(172,187,22)"/><g id="Group"><path d=" M 257.159 103.198 C 256.095 100.962 253.42 100.013 251.185 101.078 L 157.057 145.9 C 154.822 146.964 153.872 149.638 154.936 151.874 C 154.936 151.875 154.937 151.875 154.937 151.875 C 156.001 154.11 158.675 155.06 160.911 153.996 C 160.911 153.996 160.911 153.995 160.912 153.995 L 255.039 109.173 C 257.275 108.108 258.224 105.433 257.159 103.198 Z " fill="rgb(41,55,55)"/></g><path d=" M 124.386 45.901 C 123.893 43.475 121.527 41.908 119.101 42.401 C 116.675 42.894 115.107 45.26 115.601 47.686 C 115.611 47.74 115.624 47.793 115.636 47.846 C 121.31 73.193 118.972 99.676 108.944 123.637 L 102.427 139.275 C 101.485 141.554 102.561 144.166 104.834 145.12 C 105.379 145.349 105.964 145.467 106.555 145.465 C 108.364 145.465 109.996 144.378 110.692 142.709 L 117.214 127.088 C 127.958 101.422 130.464 73.053 124.386 45.901 Z " fill="rgb(172,187,22)"/><path d=" M 262.063 176.841 C 254.637 176.841 248.616 182.862 248.616 190.288 C 248.616 197.715 254.637 203.735 262.063 203.735 C 269.49 203.735 275.51 197.715 275.51 190.288 C 275.51 182.862 269.49 176.841 262.063 176.841 Z  M 262.063 194.77 C 259.588 194.77 257.581 192.763 257.581 190.288 C 257.581 187.813 259.588 185.806 262.063 185.806 C 264.538 185.806 266.545 187.813 266.545 190.288 C 266.545 192.763 264.538 194.77 262.063 194.77 Z " fill="rgb(41,55,55)"/><path d=" M 154.489 51.338 C 147.062 51.338 141.042 57.358 141.042 64.785 C 141.042 72.211 147.062 78.231 154.489 78.231 C 161.915 78.231 167.935 72.211 167.935 64.785 C 167.935 57.358 161.915 51.338 154.489 51.338 Z  M 154.489 69.267 C 152.013 69.267 150.006 67.26 150.006 64.785 C 150.006 62.309 152.013 60.302 154.489 60.302 C 156.964 60.302 158.971 62.309 158.971 64.785 C 158.971 67.26 156.964 69.267 154.489 69.267 Z " fill="rgb(41,55,55)"/><path d=" M 105.184 24.444 C 105.184 19.497 109.201 15.48 114.148 15.48 C 119.096 15.48 123.113 19.497 123.113 24.444 C 123.113 29.392 119.096 33.409 114.148 33.409 C 109.201 33.409 105.184 29.392 105.184 24.444 Z " fill="rgb(172,187,22)"/><path d=" M 239.652 37.891 C 237.176 37.891 235.169 39.898 235.169 42.373 L 235.169 46.856 C 235.169 49.331 237.176 51.338 239.652 51.338 C 242.127 51.338 244.134 49.331 244.134 46.856 L 244.134 42.373 C 244.134 39.898 242.127 37.891 239.652 37.891 Z " fill="rgb(172,187,22)"/><path d=" M 239.652 15.48 C 237.176 15.48 235.169 17.487 235.169 19.962 L 235.169 24.444 C 235.169 26.92 237.176 28.927 239.652 28.927 C 242.127 28.927 244.134 26.92 244.134 24.444 L 244.134 19.962 C 244.134 17.487 242.127 15.48 239.652 15.48 Z " fill="rgb(172,187,22)"/><path d=" M 253.099 28.927 L 248.616 28.927 C 246.141 28.927 244.134 30.933 244.134 33.409 C 244.134 35.884 246.141 37.891 248.616 37.891 L 253.099 37.891 C 255.574 37.891 257.581 35.884 257.581 33.409 C 257.581 30.933 255.574 28.927 253.099 28.927 Z " fill="rgb(172,187,22)"/><path d=" M 230.687 28.927 L 226.205 28.927 C 223.73 28.927 221.723 30.933 221.723 33.409 C 221.723 35.884 223.73 37.891 226.205 37.891 L 230.687 37.891 C 233.163 37.891 235.169 35.884 235.169 33.409 C 235.169 30.933 233.163 28.927 230.687 28.927 Z " fill="rgb(172,187,22)"/><g id="Group"><g id="Group"><path d=" M 208.276 64.691 L 185.77 64.691 C 183.295 64.691 181.288 66.697 181.288 69.173 L 181.288 91.678 C 181.288 94.154 183.295 96.161 185.77 96.161 L 208.276 96.161 C 210.751 96.161 212.758 94.154 212.758 91.678 L 212.758 69.173 C 212.758 66.697 210.751 64.691 208.276 64.691 Z  M 203.794 87.196 L 190.253 87.196 L 190.253 73.655 L 203.794 73.655 L 203.794 87.196 Z " fill="rgb(172,187,22)"/></g></g><path d=" M 175.623 102.12 C 173.978 100.363 171.239 100.22 169.419 101.795 L 124.596 142.135 C 122.758 143.791 122.609 146.625 124.265 148.464 C 125.921 150.303 128.754 150.451 130.594 148.796 L 175.416 108.455 C 177.223 106.763 177.316 103.927 175.623 102.12 Z " fill="rgb(41,55,55)"/><path d=" M 257.581 118.572 C 255.105 118.572 253.099 120.579 253.099 123.054 L 253.099 127.536 C 253.099 130.012 255.105 132.019 257.581 132.019 C 260.056 132.019 262.063 130.012 262.063 127.536 L 262.063 123.054 C 262.063 120.579 260.056 118.572 257.581 118.572 Z " fill="rgb(172,187,22)"/><path d=" M 276.599 117.801 L 273.43 114.632 C 271.65 112.912 268.812 112.961 267.092 114.742 C 265.415 116.479 265.415 119.232 267.092 120.97 L 270.261 124.139 C 272.042 125.859 274.879 125.81 276.599 124.029 C 278.277 122.292 278.277 119.538 276.599 117.801 Z " fill="rgb(172,187,22)"/><path d=" M 279.992 100.643 L 275.51 100.643 C 273.035 100.643 271.028 102.65 271.028 105.125 C 271.028 107.6 273.035 109.607 275.51 109.607 L 279.992 109.607 C 282.467 109.607 284.474 107.6 284.474 105.125 C 284.474 102.65 282.467 100.643 279.992 100.643 Z " fill="rgb(172,187,22)"/><path d=" M 276.489 86.111 C 274.752 84.434 271.999 84.434 270.261 86.111 L 267.092 89.28 C 265.342 91.031 265.342 93.869 267.093 95.619 C 267.934 96.459 269.073 96.931 270.261 96.931 L 270.261 96.931 C 271.45 96.931 272.59 96.459 273.43 95.618 L 276.599 92.449 C 278.319 90.669 278.27 87.831 276.489 86.111 Z " fill="rgb(172,187,22)"/><path d=" M 257.581 78.231 C 255.105 78.231 253.099 80.238 253.099 82.714 L 253.099 87.196 C 253.099 89.671 255.105 91.678 257.581 91.678 C 260.056 91.678 262.063 89.671 262.063 87.196 L 262.063 82.714 C 262.063 80.238 260.056 78.231 257.581 78.231 Z " fill="rgb(172,187,22)"/><path d=" M 248.069 89.28 L 244.9 86.111 C 243.12 84.392 240.283 84.44 238.563 86.221 C 236.885 87.958 236.885 90.712 238.563 92.449 L 241.732 95.618 C 243.512 97.338 246.349 97.289 248.069 95.508 C 249.748 93.771 249.748 91.017 248.069 89.28 Z " fill="rgb(172,187,22)"/><g id="Group"><path d=" M 69.106 34.861 C 68.578 33.24 67.176 32.058 65.489 31.813 L 52.333 29.899 L 46.466 17.981 C 45.158 15.76 42.298 15.02 40.078 16.328 C 39.395 16.73 38.827 17.298 38.425 17.981 L 32.531 29.899 L 19.375 31.813 C 16.925 32.167 15.226 34.44 15.579 36.89 C 15.72 37.865 16.178 38.767 16.883 39.455 L 26.399 48.734 L 24.158 61.835 C 23.728 64.273 25.355 66.598 27.792 67.029 C 28.774 67.202 29.785 67.043 30.666 66.578 L 42.432 60.374 L 54.198 66.56 C 56.389 67.712 59.099 66.869 60.251 64.678 C 60.71 63.806 60.868 62.807 60.702 61.835 L 58.461 48.734 L 67.981 39.455 C 69.2 38.263 69.635 36.482 69.106 34.861 Z  M 50.5 43.96 C 49.445 44.988 48.962 46.47 49.209 47.922 L 50.321 54.399 L 44.516 51.338 C 43.211 50.653 41.653 50.653 40.348 51.338 L 34.521 54.395 L 35.632 47.918 C 35.884 46.471 35.41 44.992 34.364 43.96 L 29.653 39.375 L 36.157 38.429 C 37.617 38.217 38.879 37.3 39.532 35.977 L 42.432 30.092 L 45.337 35.977 C 45.989 37.299 47.249 38.215 48.707 38.429 L 55.206 39.375 L 50.5 43.96 Z " fill="rgb(172,187,22)"/></g><path d=" M 269.333 240.153 L 269.315 240.153 L 267.469 237.383 C 257.114 221.899 240.832 211.37 222.462 208.28 C 220.012 207.93 217.741 209.634 217.392 212.084 C 217.054 214.452 218.634 216.668 220.983 217.119 C 234.233 219.368 246.307 226.099 255.187 236.187 C 247.722 237.53 241.192 242.013 237.258 248.499 C 232.431 257.145 235.526 268.067 244.172 272.894 C 252.818 277.721 263.739 274.626 268.567 265.98 C 270.411 262.421 271.406 258.482 271.476 254.474 C 276.245 261.401 276.627 270.447 272.457 277.751 C 271.195 279.88 271.897 282.63 274.026 283.892 C 276.155 285.155 278.905 284.453 280.168 282.324 C 280.208 282.256 280.247 282.187 280.284 282.116 C 288.491 267.457 283.656 248.934 269.333 240.153 Z  M 260.75 261.605 C 258.357 265.94 252.904 267.515 248.57 265.122 C 244.235 262.73 242.66 257.277 245.053 252.942 C 245.066 252.918 245.08 252.894 245.093 252.87 C 247.738 248.539 252.2 245.635 257.231 244.972 C 258.011 244.95 258.782 245.13 259.472 245.492 C 263.255 247.603 263.457 256.756 260.75 261.605 Z " fill="rgb(41,55,55)"/></g></svg>