<?xml version="1.0" encoding="iso-8859-1"?>
<!-- Generator: Adobe Illustrator 19.0.0, SVG Export Plug-In . SVG Version: 6.00 Build 0)  -->
<svg xmlns="http://www.w3.org/2000/svg" xmlns:xlink="http://www.w3.org/1999/xlink" version="1.1" id="Layer_1" x="0px" y="0px" viewBox="0 0 511.928 511.928" style="enable-background:new 0 0 511.928 511.928;" xml:space="preserve" width="64px" height="64px">
<g>
	<g>
		<path d="M476.01,105.93c2.514-6.226,3.92-13.014,3.92-20.13c0-0.156-0.016-0.313-0.016-0.469h10.688    c5.89,0,10.654-4.773,10.654-10.663c0-5.897-4.766-10.67-10.654-10.67h-15.295c-2.531-5.663-6-10.812-10.219-15.24l10.719-8.335    c4.467-3.46,5.451-9.804,2.25-14.459c-0.719-1.047-17.951-25.59-50.01-25.957c-29.762-0.336-49.057,11.842-49.867,12.357    c-3.078,1.984-4.938,5.413-4.891,9.077c0.031,3.671,1.953,7.062,5.078,8.982l17.621,10.843    c-9.904,6.733-17.466,16.686-21.152,28.34c-53.148,65.812-63.211,118.616-65.103,136.896l-25.792,12.889    c-17.904-56.969-45.899-89.862-83.348-97.83c-20.294-4.32-43.025-1.102-67.569,9.568c-18.857,8.202-38.901,20.841-59.602,37.565    c-34.808,28.137-59.32,57.938-60.351,59.195c-3.062,3.749-3.218,9.1-0.375,13.021c2.859,3.921,7.983,5.429,12.499,3.671    c46.697-18.169,80.426-21.896,100.268-11.076c12.717,6.937,19.997,19.763,25.106,35.369c0.109,0.367,0.219,0.727,0.359,1.078    c3.437,10.756,5.874,22.787,8.389,35.098c1.016,4.998,2.047,10.061,3.156,15.061c0.063,0.406,0.156,0.797,0.266,1.188    c3.484,15.496,7.843,30.604,15.311,42.994c11.17,18.526,27.465,28.418,49.649,30.071l4.125,8.892    c1.14,2.5,3.218,4.436,5.765,5.436c4.171,1.656,36.823,14.312,61.085,17.718l-0.094,64.194h-21.341    c-5.891,0-10.672,4.765-10.672,10.67c0,5.873,4.781,10.654,10.672,10.654h31.979h0.017h31.979h0.016h31.996    c5.89,0,10.67-4.781,10.67-10.654c0-5.905-4.78-10.67-10.67-10.67h-21.311l0.078-66.039c28.293-4.561,64.227-16.123,88.098-44.682    c25.34-30.338,31.465-72.896,18.201-126.474c-15.717-63.421-19.217-94.573-19.623-109.048l8.453,18.131    c1.266,2.703,3.592,4.757,6.436,5.655c1.063,0.336,2.142,0.5,3.234,0.5c1.844,0,3.672-0.477,5.297-1.406l33.807-19.325    c2.781-1.594,4.688-4.351,5.22-7.507c0.53-3.164-0.392-6.39-2.517-8.796L476.01,105.93z M427.797,21.34    c11.467,0.133,20.092,5.015,25.605,9.482l-6.765,5.25c-6.313-2.617-13.248-4.07-20.498-4.07c-1.422,0-2.813,0.07-4.203,0.18    l-14.106-8.679C413.438,22.199,420.174,21.254,427.797,21.34z M330.576,490.604h-10.654L320,427.41    c3.061-0.063,6.654-0.188,10.67-0.438L330.576,490.604z M423.781,366.135c-36.729,44.041-113.048,39.84-113.813,39.81    c-0.156-0.031-0.328-0.031-0.5-0.031c-0.031,0-0.078,0-0.109,0c-0.016,0-0.016,0-0.03,0c-0.016,0-0.031,0-0.031,0    c-15.295,0-45.461-10.125-59.944-15.545l-5.046-10.891c-1.734-3.779-5.515-6.187-9.67-6.187c-0.016,0-0.031,0-0.031,0    c-30.449,0-41.213-17.968-49.056-48.558c5.046-1.594,11.499-2.953,17.232-2.188c5.827,0.75,11.186-3.357,11.952-9.186    c0.765-5.845-3.343-11.218-9.187-11.968c-8.967-1.188-17.841,0.423-24.7,2.453c-0.219-1.016-0.422-2.03-0.625-3.063    c-2.031-9.981-4.109-20.153-6.812-29.957c5.984-3,16.264-6.536,28.934-4.352c5.812,1,11.327-2.889,12.327-8.693    c1-5.803-2.891-11.317-8.702-12.325c-16.638-2.866-30.402,0.961-39.573,5.109c-7.327-16.779-17.388-28.512-30.714-35.784    c-1.031-0.563-2.094-1.094-3.156-1.602c20.06-4.875,45.275-7.921,69.146-2.164c5.718,1.375,11.483-2.148,12.858-7.874    c1.375-5.726-2.141-11.482-7.874-12.865C153.164,177.385,97,201.483,85.924,206.624c-8.843,0.805-18.341,2.476-28.605,5.062    c8.53-8.366,18.654-17.639,29.808-26.629c29.465-23.778,72.303-50.47,109.048-42.635c31.652,6.749,55.477,38.721,70.833,95.018    c0.844,3.086,3.017,5.633,5.938,6.937c2.922,1.305,6.264,1.227,9.123-0.203l42.649-21.325c3.625-1.804,5.906-5.452,5.906-9.49    c0-0.141,0.219-14.365,7.92-37.597c9.016-27.168,23.264-51.86,37.027-71.623c6.545,18.006,22.465,31.551,41.821,34.729    c-0.547,22.317,6.404,63.999,20.185,119.664C449.123,305.112,444.483,341.312,423.781,366.135z M426.141,118.264    c-17.903,0-32.465-14.568-32.465-32.464c0-17.904,14.56-32.465,32.465-32.465c17.904,0,32.465,14.561,32.465,32.465    C458.606,103.696,444.045,118.264,426.141,118.264z M461.559,142.972l-5.75-12.335c2.828-1.882,5.484-4.022,7.906-6.397    l10.248,11.647L461.559,142.972z" fill="#acbb16"/>
	</g>
</g>
<g>
</g>
<g>
</g>
<g>
</g>
<g>
</g>
<g>
</g>
<g>
</g>
<g>
</g>
<g>
</g>
<g>
</g>
<g>
</g>
<g>
</g>
<g>
</g>
<g>
</g>
<g>
</g>
<g>
</g>
</svg>
