<?xml version="1.0" standalone="no"?><!-- Generator: Gravit.io --><svg xmlns="http://www.w3.org/2000/svg" xmlns:xlink="http://www.w3.org/1999/xlink" style="isolation:isolate" viewBox="0 0 300 300" width="300" height="300"><defs><clipPath id="_clipPath_gcSoezJo6juFFuZ0x4MnuQDkGTBRMeC8"><rect width="300" height="300"/></clipPath></defs><g clip-path="url(#_clipPath_gcSoezJo6juFFuZ0x4MnuQDkGTBRMeC8)"><g id="Group"><g id="Group"><path d=" M 178.987 72.275 L 166.54 69.974 C 165.68 69.815 165.057 69.065 165.057 68.19 L 165.057 67.543 C 172.829 62.563 177.995 53.857 177.995 43.961 L 177.995 40.047 L 177.995 37.828 L 177.995 34.655 C 177.995 19.219 165.436 6.66 150 6.66 C 134.563 6.66 122.004 19.219 122.004 34.655 L 122.004 37.828 L 122.004 40.047 L 122.004 43.96 C 122.004 53.854 127.168 62.558 134.937 67.539 L 134.937 68.19 C 134.937 69.065 134.314 69.814 133.453 69.974 L 121.012 72.274 C 108.61 74.567 99.608 85.386 99.608 97.998 L 99.608 156.159 C 99.607 159.25 102.114 161.758 105.207 161.758 L 119.299 161.758 L 119.299 162.32 C 119.299 165.412 121.806 167.92 124.899 167.92 C 127.991 167.92 130.498 165.412 130.498 162.32 L 130.498 149.997 L 130.498 149.767 L 144.413 149.767 C 144.41 149.844 144.401 149.919 144.401 149.997 L 144.401 220.872 C 144.401 224.706 141.283 227.824 137.449 227.824 C 133.615 227.824 130.497 224.706 130.497 220.872 L 130.497 204.5 C 130.497 201.408 127.99 198.901 124.898 198.901 C 121.806 198.901 119.299 201.408 119.299 204.5 L 119.299 220.872 C 119.299 230.88 127.441 239.022 137.449 239.022 C 142.315 239.022 146.737 237.093 150 233.964 C 153.262 237.093 157.684 239.022 162.551 239.022 C 172.559 239.022 180.701 230.879 180.701 220.872 L 180.701 161.758 L 194.793 161.758 C 197.886 161.758 200.393 159.25 200.393 156.159 L 200.393 97.998 C 200.391 85.386 191.389 74.567 178.987 72.275 Z  M 149.999 17.858 C 157.593 17.858 164.026 22.923 166.096 29.853 L 160.249 26.417 C 157.891 25.031 154.878 25.553 153.121 27.648 C 149.5 31.97 144.19 34.448 138.552 34.448 L 133.202 34.448 C 133.315 25.281 140.806 17.858 149.999 17.858 Z  M 133.286 45.646 L 138.553 45.646 C 145.89 45.646 152.877 43.004 158.328 38.276 L 166.796 43.251 L 166.796 43.96 C 166.796 53.222 159.261 60.757 149.999 60.757 C 141.306 60.757 134.134 54.119 133.286 45.646 Z  M 155.435 74.38 L 150 86.199 L 144.559 74.374 C 145.029 73.506 145.41 72.587 145.674 71.621 C 147.084 71.84 148.528 71.955 149.999 71.955 C 151.467 71.955 152.909 71.84 154.318 71.621 C 154.583 72.59 154.965 73.511 155.435 74.38 Z  M 162.549 227.824 C 158.715 227.824 155.597 224.706 155.597 220.872 L 155.597 149.997 C 155.597 149.919 155.589 149.844 155.586 149.767 L 169.501 149.767 L 169.501 149.997 L 169.501 220.873 L 169.501 220.873 C 169.501 224.706 166.383 227.824 162.549 227.824 Z  M 189.192 150.559 L 180.699 150.559 L 180.699 149.997 L 180.699 106.884 C 180.699 103.792 178.192 101.285 175.099 101.285 C 172.007 101.285 169.5 103.792 169.5 106.884 L 169.5 138.569 L 130.495 138.569 L 130.495 106.884 C 130.495 103.792 127.989 101.285 124.896 101.285 C 121.804 101.285 119.297 103.792 119.297 106.884 L 119.297 149.997 L 119.297 150.559 L 110.805 150.559 L 110.805 97.998 L 110.805 97.998 C 110.805 90.784 115.954 84.596 123.047 83.285 L 135.292 81.021 L 144.915 101.938 C 145.829 103.924 147.816 105.196 150.002 105.196 C 152.188 105.196 154.175 103.924 155.088 101.937 L 164.707 81.022 L 176.951 83.285 C 184.045 84.597 189.194 90.785 189.194 97.998 L 189.194 150.559 L 189.192 150.559 Z " fill="rgb(41,55,55)"/></g></g><g id="Group"><g id="Group"><path d=" M 128.857 178.658 C 127.815 177.611 126.371 177.018 124.898 177.018 C 123.425 177.018 121.981 177.611 120.939 178.658 C 119.898 179.7 119.299 181.144 119.299 182.617 C 119.299 184.09 119.898 185.534 120.939 186.575 C 121.981 187.617 123.425 188.216 124.898 188.216 C 126.371 188.216 127.815 187.617 128.857 186.575 C 129.898 185.534 130.497 184.09 130.497 182.617 C 130.497 181.138 129.898 179.7 128.857 178.658 Z " fill="rgb(172,187,22)"/></g></g><g id="Group"><g id="Group"><path d=" M 249.292 74.022 C 245.516 69.726 240.076 67.156 234.365 66.972 C 228.664 66.794 223.087 68.996 219.057 73.026 C 211.351 80.732 210.938 93.156 218.116 101.312 C 232.683 117.863 240.704 139.132 240.704 161.201 C 240.704 211.216 200.014 251.906 149.999 251.906 C 99.984 251.906 59.294 211.216 59.294 161.201 C 59.294 139.132 67.316 117.864 81.881 101.312 C 89.059 93.157 88.646 80.732 80.941 73.026 C 80.929 73.014 80.917 73.003 80.906 72.991 C 76.87 68.973 71.291 66.763 65.602 66.954 C 59.85 67.136 54.595 69.607 50.804 73.911 C 29.909 97.636 18.212 128.117 17.869 159.738 C 17.484 195.086 31.115 228.546 56.248 253.953 C 81.373 279.352 114.668 293.34 150 293.34 C 175.542 293.34 200.328 286.039 221.68 272.227 C 224.277 270.547 225.02 267.081 223.34 264.484 C 221.66 261.888 218.194 261.144 215.598 262.824 C 196.062 275.462 173.379 282.142 150 282.142 C 117.682 282.142 87.214 269.334 64.209 246.078 C 41.195 222.813 28.715 192.193 29.066 159.859 C 29.38 130.919 40.085 103.024 59.207 81.312 C 60.933 79.354 63.329 78.23 65.956 78.147 C 68.627 78.054 71.135 79.055 73.022 80.943 C 73.031 80.952 73.039 80.96 73.048 80.969 C 76.564 84.511 76.754 90.19 73.477 93.914 C 57.111 112.51 48.096 136.407 48.096 161.201 C 48.095 217.39 93.809 263.103 149.999 263.103 C 206.189 263.103 251.903 217.39 251.903 161.2 C 251.903 136.406 242.889 112.51 226.522 93.913 C 223.237 90.18 223.436 84.483 226.975 80.944 C 228.853 79.066 231.356 78.07 234.005 78.164 C 236.673 78.25 239.114 79.404 240.88 81.413 C 260.265 103.472 270.94 131.808 270.94 161.2 C 270.94 187.201 262.816 211.974 247.447 232.842 C 245.613 235.332 246.145 238.837 248.635 240.671 C 251.125 242.504 254.63 241.973 256.464 239.483 C 273.261 216.677 282.139 189.607 282.139 161.2 C 282.138 129.085 270.473 98.125 249.292 74.022 Z " fill="rgb(172,187,22)"/></g></g><g id="Group"><g id="Group"><path d=" M 243.438 246.721 C 241.253 244.533 237.709 244.53 235.52 246.715 L 234.996 247.236 C 232.797 249.412 232.779 252.957 234.954 255.155 C 236.049 256.262 237.491 256.816 238.934 256.816 C 240.358 256.816 241.78 256.277 242.872 255.197 L 243.432 254.64 C 245.62 252.454 245.623 248.91 243.438 246.721 Z " fill="rgb(41,55,55)"/></g></g></g></svg>