<svg xmlns="http://www.w3.org/2000/svg" xmlns:xlink="http://www.w3.org/1999/xlink" style="isolation:isolate" viewBox="0 0 20 20" width="20" height="20"><defs><clipPath id="_clipPath_yIKltMHDJ6zTRRNosLChl3LFTJJYpSkt"><rect width="20" height="20"/></clipPath></defs><g clip-path="url(#_clipPath_yIKltMHDJ6zTRRNosLChl3LFTJJYpSkt)"><path d=" M 5.806 0 C 2.604 0.006 0.009 2.598 0 5.8 L 0 14.19 C 0.007 17.394 2.602 19.989 5.806 19.995 L 14.195 19.995 C 17.396 19.986 19.988 17.391 19.995 14.19 L 19.995 5.8 C 19.986 2.601 17.394 0.009 14.195 0 L 5.806 0 Z  M 5.806 1.538 L 14.195 1.538 C 15.328 1.535 16.415 1.983 17.216 2.784 C 18.017 3.585 18.465 4.672 18.462 5.805 L 18.462 14.195 C 18.465 15.328 18.017 16.415 17.216 17.216 C 16.415 18.017 15.328 18.465 14.195 18.462 L 5.806 18.462 C 4.673 18.465 3.586 18.017 2.785 17.216 C 1.984 16.415 1.536 15.328 1.539 14.195 L 1.539 5.805 C 1.536 4.672 1.984 3.585 2.785 2.784 C 3.586 1.983 4.673 1.535 5.806 1.538 L 5.806 1.538 Z  M 15.769 3.077 C 15.302 3.077 14.881 3.358 14.703 3.789 C 14.524 4.221 14.623 4.717 14.953 5.047 C 15.283 5.377 15.779 5.476 16.211 5.297 C 16.642 5.119 16.923 4.698 16.923 4.231 C 16.923 3.594 16.406 3.077 15.769 3.077 Z  M 10 4.615 C 7.822 4.615 5.858 5.927 5.025 7.939 C 4.191 9.951 4.652 12.268 6.192 13.808 C 7.732 15.348 10.049 15.809 12.061 14.975 C 14.073 14.142 15.385 12.178 15.385 10 C 15.377 7.029 12.971 4.623 10 4.615 L 10 4.615 Z  M 10 6.154 C 12.124 6.154 13.846 7.876 13.846 10 C 13.846 12.124 12.124 13.846 10 13.846 C 7.876 13.846 6.154 12.124 6.154 10 C 6.151 8.979 6.555 7.999 7.277 7.277 C 7.999 6.555 8.979 6.151 10 6.154 Z " fill="rgb(172,187,22)"/></g></svg>