<?xml version="1.0" standalone="no"?><!-- Generator: Gravit.io --><svg xmlns="http://www.w3.org/2000/svg" xmlns:xlink="http://www.w3.org/1999/xlink" style="isolation:isolate" viewBox="0 0 300 300" width="300" height="300"><defs><clipPath id="_clipPath_jSFXGFWcXZx6GqmvUVnTeJm9Ip2UjmQY"><rect width="300" height="300"/></clipPath></defs><g clip-path="url(#_clipPath_jSFXGFWcXZx6GqmvUVnTeJm9Ip2UjmQY)"><g id="Group"><g id="Group"><path d=" M 80.148 161.726 C 73.57 161.726 68.219 167.077 68.219 173.654 C 68.219 180.231 73.57 185.581 80.148 185.581 C 86.725 185.581 92.075 180.231 92.075 173.654 C 92.075 167.077 86.724 161.726 80.148 161.726 Z  M 80.148 177.716 C 77.909 177.716 76.087 175.894 76.087 173.655 C 76.087 171.416 77.909 169.594 80.148 169.594 C 82.387 169.594 84.209 171.416 84.209 173.655 C 84.209 175.894 82.387 177.716 80.148 177.716 Z " fill="rgb(172,187,22)"/></g></g><g id="Group"><g id="Group"><path d=" M 188.067 237.579 C 187.541 235.956 186.03 234.86 184.326 234.86 L 160.961 234.86 L 153.741 212.638 C 153.22 211.036 151.684 209.92 150 209.92 C 148.315 209.92 146.779 211.036 146.259 212.638 L 139.038 234.86 L 115.674 234.86 C 113.97 234.86 112.459 235.957 111.933 237.578 C 111.406 239.199 111.983 240.975 113.362 241.975 L 132.264 255.709 L 125.044 277.931 C 124.54 279.481 125.069 281.226 126.35 282.235 C 127.717 283.313 129.688 283.352 131.097 282.328 L 149.999 268.594 L 168.901 282.328 C 170.38 283.402 172.458 283.299 173.824 282.087 C 174.982 281.06 175.433 279.404 174.954 277.931 L 167.734 255.71 L 186.636 241.976 C 188.016 240.975 188.593 239.199 188.067 237.579 Z  M 160.799 251.024 C 159.42 252.025 158.844 253.801 159.37 255.421 L 163.733 268.848 L 152.311 260.55 C 150.948 259.559 149.05 259.559 147.688 260.55 L 136.266 268.848 L 140.629 255.421 C 141.155 253.801 140.578 252.025 139.2 251.024 L 127.779 242.727 L 141.896 242.727 C 143.6 242.727 145.11 241.629 145.637 240.008 L 149.999 226.582 L 154.361 240.008 C 154.888 241.629 156.399 242.727 158.102 242.727 L 172.22 242.727 L 160.799 251.024 Z " fill="rgb(172,187,22)"/></g></g><g id="Group"><g id="Group"><path d=" M 283.807 237.577 C 283.28 235.956 281.77 234.859 280.066 234.859 L 256.701 234.859 L 249.481 212.638 C 248.961 211.036 247.424 209.92 245.74 209.92 C 244.056 209.92 242.52 211.035 241.999 212.638 L 234.779 234.859 L 211.414 234.859 C 209.71 234.859 208.2 235.956 207.673 237.577 C 207.146 239.198 207.723 240.974 209.102 241.975 L 228.004 255.709 L 220.784 277.93 C 220.28 279.48 220.81 281.226 222.09 282.235 C 223.458 283.312 225.428 283.352 226.837 282.328 L 245.739 268.594 L 264.642 282.328 C 266.121 283.402 268.198 283.299 269.565 282.087 C 270.723 281.059 271.174 279.403 270.695 277.931 L 263.475 255.709 L 282.377 241.975 C 283.757 240.974 284.334 239.198 283.807 237.577 Z  M 256.54 251.024 C 255.161 252.025 254.584 253.801 255.111 255.421 L 259.472 268.848 L 248.052 260.55 C 246.673 259.548 244.806 259.548 243.428 260.55 L 232.007 268.848 L 236.369 255.421 C 236.895 253.801 236.319 252.025 234.94 251.024 L 223.519 242.727 L 237.637 242.727 C 239.34 242.727 240.851 241.629 241.378 240.008 L 245.74 226.582 L 250.102 240.008 C 250.629 241.629 252.14 242.727 253.843 242.727 L 267.96 242.727 L 256.54 251.024 Z " fill="rgb(172,187,22)"/></g></g><g id="Group"><g id="Group"><path d=" M 92.327 237.579 C 91.8 235.956 90.29 234.86 88.586 234.86 L 65.221 234.86 L 58.001 212.638 C 57.474 211.017 55.964 209.92 54.26 209.92 C 52.556 209.92 51.045 211.017 50.519 212.638 L 43.298 234.86 L 19.934 234.86 C 18.23 234.86 16.719 235.957 16.193 237.578 C 15.666 239.199 16.243 240.975 17.622 241.975 L 36.524 255.709 L 29.304 277.931 C 28.777 279.551 29.354 281.327 30.733 282.328 C 32.111 283.33 33.978 283.33 35.357 282.328 L 54.259 268.594 L 73.162 282.328 C 74.64 283.402 76.718 283.299 78.084 282.087 C 79.242 281.06 79.693 279.404 79.214 277.931 L 71.994 255.71 L 90.896 241.976 C 92.277 240.975 92.854 239.199 92.327 237.579 Z  M 65.059 251.024 C 63.681 252.025 63.104 253.801 63.63 255.421 L 67.993 268.848 L 56.571 260.55 C 55.208 259.559 53.31 259.559 51.947 260.55 L 40.527 268.847 L 44.889 255.421 C 45.415 253.8 44.838 252.024 43.46 251.024 L 32.039 242.726 L 46.156 242.726 C 47.86 242.726 49.37 241.629 49.897 240.008 L 54.259 226.582 L 58.622 240.008 C 59.148 241.629 60.659 242.726 62.363 242.726 L 76.48 242.726 L 65.059 251.024 Z " fill="rgb(172,187,22)"/></g></g><g id="Group"><g id="Group"><path d=" M 252.158 114.981 C 256.221 111.712 258.825 106.699 258.825 101.09 C 258.825 91.262 250.829 83.266 241.001 83.266 L 177.73 83.266 C 179.696 78.978 181.966 72.446 183.264 63.365 C 186.278 42.266 181.724 31.067 177.372 25.387 C 173.689 20.58 168.741 17.673 163.064 16.981 C 158.274 16.392 153.899 20.197 153.771 25.01 C 153.035 32.575 150.341 53.331 146.482 61.05 C 136.569 80.877 112.933 92.697 105.634 95.968 C 103.079 93.772 99.762 92.441 96.137 92.441 L 64.158 92.441 C 56.112 92.441 49.566 98.987 49.566 107.034 L 49.566 186.979 C 49.566 195.026 56.112 201.571 64.158 201.571 L 96.136 201.571 C 100.442 201.571 104.317 199.696 106.989 196.721 C 111.141 199.341 117.841 202.261 127.093 202.261 L 229.888 202.261 C 239.716 202.261 247.712 194.265 247.712 184.437 C 247.712 179.932 246.032 175.811 243.265 172.67 C 249.184 169.767 253.268 163.678 253.268 156.654 C 253.268 152.149 251.587 148.029 248.82 144.887 C 254.739 141.985 258.823 135.896 258.823 128.872 C 258.825 123.263 256.22 118.25 252.158 114.981 Z  M 96.136 193.704 L 64.158 193.704 C 60.45 193.704 57.433 190.687 57.433 186.978 L 57.433 107.033 C 57.433 103.325 60.45 100.308 64.158 100.308 L 96.136 100.308 C 98.014 100.308 99.713 101.083 100.934 102.329 L 100.934 190.047 C 100.934 190.517 101.019 190.979 101.181 191.412 C 99.947 192.814 98.146 193.704 96.136 193.704 Z  M 224.474 118.914 L 241.002 118.914 C 246.493 118.914 250.96 123.382 250.96 128.872 C 250.96 134.361 246.493 138.829 241.002 138.829 L 224.474 138.829 C 222.302 138.829 220.541 140.59 220.541 142.763 C 220.541 144.935 222.302 146.696 224.474 146.696 L 235.446 146.696 C 240.936 146.696 245.403 151.164 245.403 156.654 C 245.403 162.143 240.936 166.611 235.446 166.611 L 221.459 166.611 C 219.286 166.611 217.525 168.372 217.525 170.545 C 217.525 172.717 219.286 174.478 221.459 174.478 L 229.889 174.478 C 235.379 174.478 239.846 178.946 239.846 184.436 C 239.846 189.926 235.379 194.393 229.889 194.393 L 127.095 194.393 C 118.976 194.393 113.472 191.674 110.484 189.632 C 110.643 188.77 110.73 187.884 110.73 186.977 L 110.73 107.033 C 110.73 105.495 110.49 104.014 110.047 102.621 C 119.263 98.391 142.859 85.885 153.518 64.568 C 158.849 53.906 161.507 26.755 161.618 25.605 C 161.629 25.48 161.636 25.354 161.636 25.229 C 161.636 25.095 161.687 24.981 161.788 24.892 C 161.929 24.768 162.065 24.783 162.111 24.789 C 164.573 25.09 168.136 26.267 171.128 30.171 C 174.562 34.654 178.104 43.859 175.476 62.253 C 173.249 77.845 167.968 84.666 167.935 84.708 C 165.873 87.228 167.73 91.133 170.979 91.133 L 241.002 91.133 C 246.493 91.133 250.959 95.6 250.959 101.091 C 250.959 106.582 246.492 111.048 241.002 111.048 L 224.474 111.048 C 222.301 111.048 220.54 112.809 220.54 114.982 C 220.54 117.154 222.301 118.914 224.474 118.914 Z " fill="rgb(41,55,55)"/></g></g></g></svg>