<svg xmlns="http://www.w3.org/2000/svg" xmlns:xlink="http://www.w3.org/1999/xlink" style="isolation:isolate" viewBox="0 0 20 20" width="20" height="20"><defs><clipPath id="_clipPath_oIOGFbRr7tnXSycvRhUxZz2GEc0LjzM5"><rect width="20" height="20"/></clipPath></defs><g clip-path="url(#_clipPath_oIOGFbRr7tnXSycvRhUxZz2GEc0LjzM5)"><path d=" M 16 0 L 4 0 C 1.791 0 0 1.791 0 4 L 0 16 C 0 18.209 1.791 20 4 20 L 16 20 C 18.209 20 20 18.209 20 16 L 20 4 C 20 1.791 18.209 0 16 0 Z  M 6.4 13.959 L 6.4 16.8 L 3.2 16.8 L 3.2 7.6 L 6.4 7.6 L 6.4 13.959 Z  M 4.8 6.6 C 4.383 6.623 3.974 6.474 3.672 6.186 C 3.369 5.898 3.198 5.498 3.2 5.08 C 3.2 4.666 3.373 4.271 3.677 3.99 C 3.98 3.709 4.388 3.568 4.8 3.6 C 5.211 3.575 5.614 3.719 5.916 3.998 C 6.218 4.278 6.393 4.669 6.4 5.08 C 6.409 5.5 6.241 5.904 5.936 6.194 C 5.631 6.483 5.219 6.631 4.8 6.6 L 4.8 6.6 Z  M 16.8 16.8 L 13.6 16.8 L 13.6 11.6 C 13.661 11.195 13.54 10.784 13.27 10.476 C 13.001 10.168 12.609 9.994 12.2 10 C 11.798 10.016 11.42 10.196 11.155 10.499 C 10.891 10.801 10.762 11.2 10.8 11.6 L 10.8 16.8 L 7.6 16.8 L 7.6 7.6 L 10.8 7.6 L 10.8 8.841 C 11.35 7.998 12.316 7.522 13.32 7.6 C 15.241 7.6 16.8 8.92 16.8 11.6 L 16.8 16.8 Z " fill="rgb(172,187,22)"/></g></svg>