<?xml version="1.0" standalone="no"?><!-- Generator: Gravit.io --><svg xmlns="http://www.w3.org/2000/svg" xmlns:xlink="http://www.w3.org/1999/xlink" style="isolation:isolate" viewBox="0 0 300 300" width="300" height="300"><defs><clipPath id="_clipPath_e8FQapIHPkvi0EfaMNepIoLgAkprTQHF"><rect width="300" height="300"/></clipPath></defs><g clip-path="url(#_clipPath_e8FQapIHPkvi0EfaMNepIoLgAkprTQHF)"><g id="003-connection"><g id="Group"><g id="Group"><path d=" M 223.716 158.978 L 194.735 122.085 C 205.026 111.535 211.241 97.675 212.273 82.973 L 257.149 82.973 L 257.149 87.885 C 246.761 90.019 239.301 99.157 239.29 109.762 C 239.293 122.091 249.289 132.084 261.618 132.082 C 273.947 132.08 283.94 122.082 283.938 109.753 C 283.936 99.147 276.471 90.006 266.079 87.885 L 266.079 78.509 C 266.079 76.043 264.079 74.044 261.614 74.044 L 212.273 74.044 C 211.4 61.673 206.844 49.847 199.191 40.089 L 205.42 33.86 L 257.971 33.86 C 260.436 40.835 268.089 44.49 275.063 42.024 C 282.038 39.558 285.693 31.905 283.227 24.931 C 280.761 17.957 273.108 14.301 266.134 16.767 C 262.32 18.115 259.319 21.116 257.971 24.93 L 203.572 24.93 C 202.388 24.93 201.252 25.401 200.415 26.238 L 193.205 33.449 C 168.393 9.553 128.907 10.296 105.011 35.108 C 94.854 45.654 88.731 59.437 87.715 74.043 L 50.21 74.043 L 35.614 41.214 C 42.139 37.78 44.645 29.708 41.211 23.183 C 37.778 16.658 29.705 14.153 23.18 17.586 C 16.656 21.02 14.15 29.092 17.584 35.617 C 19.388 39.046 22.594 41.522 26.368 42.401 L 43.222 80.325 C 43.94 81.936 45.539 82.974 47.303 82.973 L 87.714 82.973 C 88.742 97.506 94.836 111.217 104.935 121.718 L 67.243 159.41 C 42.871 155.759 20.154 172.555 16.502 196.927 C 12.85 221.299 29.647 244.016 54.019 247.668 C 54.754 247.778 55.493 247.87 56.233 247.943 L 56.233 270.495 C 56.233 272.96 58.232 274.96 60.697 274.96 L 101.702 274.96 C 104.168 281.934 111.821 285.589 118.795 283.123 C 125.769 280.657 129.425 273.004 126.959 266.03 C 124.492 259.056 116.84 255.4 109.866 257.867 C 106.051 259.215 103.051 262.216 101.702 266.03 L 65.162 266.03 L 65.162 247.943 C 89.684 245.499 107.582 223.638 105.137 199.115 C 103.483 182.522 92.714 168.235 77.217 162.076 L 111.596 127.697 C 133.985 145.325 165.499 145.452 188.029 128.005 L 212.8 159.535 C 178.597 164.307 154.737 195.901 159.509 230.104 C 164.28 264.307 195.875 288.166 230.077 283.395 C 264.28 278.624 288.14 247.029 283.369 212.827 C 279.178 182.784 254.03 160.082 223.716 158.978 Z  M 275.008 109.762 C 275.008 117.16 269.011 123.157 261.614 123.157 C 254.216 123.157 248.219 117.16 248.219 109.762 C 248.219 102.365 254.216 96.368 261.614 96.368 C 269.011 96.368 275.008 102.365 275.008 109.762 Z  M 270.543 24.931 C 273.009 24.931 275.008 26.93 275.008 29.396 C 275.008 31.861 273.009 33.86 270.543 33.86 C 268.078 33.86 266.079 31.861 266.079 29.396 C 266.079 26.93 268.078 24.931 270.543 24.931 Z  M 29.444 33.86 C 26.978 33.86 24.979 31.861 24.979 29.396 C 24.979 26.93 26.978 24.931 29.444 24.931 C 31.909 24.931 33.909 26.93 33.909 29.396 C 33.909 31.861 31.909 33.86 29.444 33.86 Z  M 114.275 266.03 C 116.741 266.03 118.74 268.03 118.74 270.495 C 118.74 272.961 116.741 274.96 114.275 274.96 C 111.809 274.96 109.81 272.961 109.81 270.495 C 109.81 268.03 111.809 266.03 114.275 266.03 Z  M 78.557 234.411 C 67.522 240.855 53.872 240.855 42.838 234.411 L 42.838 225.847 C 42.838 215.984 50.834 207.988 60.697 207.988 C 70.561 207.988 78.557 215.984 78.557 225.847 L 78.557 234.411 Z  M 51.768 190.129 C 51.768 185.197 55.765 181.199 60.697 181.199 C 65.629 181.199 69.627 185.197 69.627 190.129 C 69.627 195.061 65.629 199.058 60.697 199.058 C 55.765 199.058 51.768 195.06 51.768 190.129 Z  M 87.486 179.82 C 93.258 186.364 96.435 194.796 96.416 203.523 C 96.414 212.199 93.238 220.575 87.486 227.071 L 87.486 225.847 C 87.481 216.086 82.166 207.1 73.614 202.394 C 80.425 195.259 80.161 183.954 73.026 177.143 C 65.892 170.333 54.587 170.596 47.776 177.731 C 41.189 184.632 41.189 195.492 47.776 202.393 C 39.226 207.101 33.914 216.086 33.909 225.847 L 33.909 227.07 C 20.861 212.275 22.277 189.703 37.072 176.656 C 51.867 163.608 74.438 165.024 87.486 179.82 Z  M 181.247 121.924 C 162.608 135.456 137.379 135.456 118.74 121.924 L 118.74 111.102 C 118.74 102.965 125.337 96.368 133.474 96.368 L 143.386 96.368 L 136.907 112.566 C 136.244 114.225 136.634 116.121 137.898 117.384 L 146.828 126.313 C 148.572 128.056 151.398 128.056 153.141 126.313 L 162.071 117.384 C 163.336 116.121 163.726 114.225 163.062 112.566 L 156.588 96.368 L 166.513 96.368 C 174.65 96.368 181.247 102.965 181.247 111.102 L 181.247 121.924 L 181.247 121.924 Z  M 150.633 49.42 C 150.465 49.699 150.329 49.995 150.226 50.304 C 147.967 57.077 135.77 59.644 127.916 60.39 C 129.114 45.427 136.155 38.325 149.994 38.325 C 162.665 38.325 169.639 44.316 171.635 56.818 L 156.758 47.888 C 154.643 46.62 151.901 47.306 150.633 49.42 Z  M 156.151 57.944 L 172.108 67.521 C 170.317 78.451 156.847 87.438 149.994 87.438 C 140.035 85.742 131.751 78.837 128.29 69.347 C 135.934 68.717 149.735 66.4 156.151 57.944 Z  M 153.682 113.151 L 149.994 116.843 L 146.306 113.151 L 149.994 103.922 L 153.682 113.151 Z  M 169.474 87.644 C 176.439 82.162 180.724 73.962 181.247 65.114 C 181.247 35.593 164.25 29.396 149.994 29.396 C 135.737 29.396 118.74 35.593 118.74 65.114 C 119.259 73.967 123.545 82.173 130.514 87.657 C 118.679 89.115 109.793 99.177 109.81 111.102 L 109.81 113.816 C 90.238 91.624 92.362 57.767 114.555 38.195 C 136.748 18.623 170.605 20.747 190.177 42.939 C 208.036 63.19 208.036 93.565 190.177 113.816 L 190.177 111.101 C 190.201 99.172 181.314 89.102 169.474 87.644 Z  M 252.684 264.798 C 234.045 278.33 208.816 278.33 190.177 264.798 L 190.177 253.976 C 190.177 245.838 196.774 239.242 204.911 239.242 L 214.823 239.242 L 208.344 255.44 C 207.681 257.099 208.071 258.995 209.335 260.257 L 218.265 269.187 C 220.008 270.93 222.835 270.93 224.578 269.187 L 233.508 260.257 C 234.772 258.995 235.163 257.099 234.499 255.44 L 228.025 239.242 L 237.95 239.242 C 246.087 239.242 252.684 245.838 252.684 253.976 L 252.684 264.798 L 252.684 264.798 Z  M 227.587 200.817 L 227.587 200.813 L 243.545 210.39 C 241.754 221.324 228.284 230.312 221.431 230.312 C 211.472 228.616 203.188 221.711 199.727 212.221 C 207.371 211.591 221.172 209.273 227.587 200.817 Z  M 199.352 203.264 L 199.352 203.264 C 200.549 188.303 207.59 181.199 221.431 181.199 C 234.102 181.199 241.076 187.191 243.071 199.692 L 228.195 190.763 C 226.08 189.494 223.338 190.18 222.069 192.295 C 221.902 192.574 221.765 192.87 221.663 193.178 C 219.403 199.951 207.206 202.519 199.352 203.264 Z  M 225.118 256.025 L 221.431 259.717 L 217.743 256.025 L 221.431 246.796 L 225.118 256.025 Z  M 261.614 256.703 L 261.614 253.975 C 261.638 242.045 252.751 231.976 240.91 230.517 C 247.876 225.036 252.161 216.835 252.684 207.987 C 252.684 178.466 235.687 172.269 221.431 172.269 C 207.174 172.269 190.177 178.466 190.177 207.987 C 190.696 216.84 194.982 225.046 201.951 230.53 C 190.115 231.989 181.23 242.05 181.247 253.975 L 181.247 256.69 C 161.721 234.48 163.896 200.646 186.106 181.119 C 208.316 161.593 242.15 163.769 261.676 185.978 C 270.28 195.764 275.02 208.351 275.008 221.381 C 275.005 234.396 270.241 246.96 261.614 256.703 Z " fill="rgb(172,187,22)"/></g></g></g><path d=" M 253 109.5 C 253 104.809 256.809 101 261.5 101 C 266.191 101 270 104.809 270 109.5 C 270 114.191 266.191 118 261.5 118 C 256.809 118 253 114.191 253 109.5 Z " fill="rgb(41,55,55)"/><path d=" M 100 271.5 C 100 259.634 109.634 250 121.5 250 C 133.366 250 143 259.634 143 271.5 C 143 283.366 133.366 293 121.5 293 C 109.634 293 100 283.366 100 271.5 Z " fill="rgb(41,55,55)"/></g></svg>