<svg xmlns="http://www.w3.org/2000/svg" xmlns:xlink="http://www.w3.org/1999/xlink" style="isolation:isolate" viewBox="0 0 20 20" width="20" height="20"><defs><clipPath id="_clipPath_8UPjVhhXmMX61m1FruRaDodwEG62jqFv"><rect width="20" height="20"/></clipPath></defs><g clip-path="url(#_clipPath_8UPjVhhXmMX61m1FruRaDodwEG62jqFv)"><path d=" M 20.9 2.828 C 20.162 3.165 19.374 3.382 18.567 3.47 C 19.405 2.975 20.051 2.209 20.397 1.299 C 19.602 1.771 18.729 2.098 17.82 2.264 C 16.998 1.45 15.891 0.988 14.734 0.975 C 12.517 0.943 10.69 2.709 10.649 4.926 C 10.631 5.224 10.66 5.523 10.733 5.812 C 6.435 5.812 3.49 3.391 1.491 0.975 C 1.086 1.567 0.881 2.273 0.906 2.99 C 0.929 4.328 1.617 5.566 2.741 6.294 C 2.108 6.231 1.488 6.069 0.906 5.813 L 0.906 5.892 C 0.912 7.797 2.281 9.425 4.157 9.759 C 3.802 9.858 3.437 9.913 3.069 9.922 C 2.818 9.935 2.565 9.908 2.321 9.844 C 2.824 11.457 5.15 13.309 6.982 13.309 C 5.495 14.601 3.583 15.297 1.614 15.263 L 0.9 15.263 C 2.81 16.311 4.974 16.806 7.15 16.691 C 10.202 16.773 13.159 15.624 15.354 13.501 C 17.55 11.378 18.798 8.462 18.819 5.408 L 18.819 4.93 C 19.63 4.357 20.335 3.646 20.9 2.829" fill="rgb(172,187,22)"/></g></svg>