<svg xmlns="http://www.w3.org/2000/svg" xmlns:xlink="http://www.w3.org/1999/xlink" style="isolation:isolate" viewBox="0 0 20 20" width="20" height="20"><defs><clipPath id="_clipPath_zfxWz4c5CrqsbBYfFys6oMH2Ia3mcEn1"><rect width="20" height="20"/></clipPath></defs><g clip-path="url(#_clipPath_zfxWz4c5CrqsbBYfFys6oMH2Ia3mcEn1)"><path d=" M 20.347 5.557 C 20.109 4.536 19.29 3.752 18.259 3.562 C 15.806 3.153 13.322 2.967 10.835 3.005 C 8.334 2.967 5.835 3.153 3.367 3.562 C 2.328 3.737 1.501 4.527 1.278 5.557 C 1.025 7.168 0.9 8.797 0.907 10.428 C 0.888 12.062 1.028 13.694 1.324 15.301 C 1.562 16.321 2.381 17.104 3.412 17.295 C 5.881 17.7 8.381 17.886 10.882 17.852 C 13.384 17.886 15.884 17.7 18.353 17.295 C 19.391 17.119 20.218 16.329 20.442 15.301 C 20.707 13.689 20.862 12.061 20.906 10.428 C 20.842 8.793 20.655 7.165 20.347 5.557 L 20.347 5.557 Z  M 8.331 13.676 L 8.331 7.181 L 13.991 10.428 L 8.331 13.676 Z " fill="rgb(172,187,22)"/></g></svg>